<svg width="17" height="17" viewBox="0 0 17 17" fill="none" xmlns="http://www.w3.org/2000/svg">
<path fill-rule="evenodd" clip-rule="evenodd" d="M4.26675 15.2609H13.0667C14.4967 15.2609 15.6667 14.0909 15.6667 12.6609V3.86093C15.6667 2.43093 14.4967 1.26093 13.0667 1.26093H4.26675C2.83675 1.26093 1.66675 2.43093 1.66675 3.86093V12.6609C1.66675 14.0909 2.83675 15.2609 4.26675 15.2609ZM2.86675 3.86093C2.86675 3.09093 3.49675 2.46093 4.26675 2.46093H13.0667C13.8367 2.46093 14.4667 3.09093 14.4667 3.86093V12.6609C14.4667 13.4309 13.8367 14.0609 13.0667 14.0609H4.26675C3.49675 14.0609 2.86675 13.4309 2.86675 12.6609V3.86093ZM7.27677 10.7009C7.38677 10.8209 7.53677 10.8809 7.69677 10.8809L7.71677 10.8909C7.86677 10.8909 8.02677 10.8209 8.13677 10.7109L12.1768 6.66087C12.4068 6.42087 12.4068 6.04087 12.1768 5.81087C11.9368 5.58087 11.5568 5.58087 11.3268 5.81087L7.70677 9.43087L6.02677 7.75087C5.79677 7.52087 5.40677 7.52087 5.17677 7.75087C4.94677 7.99087 4.94677 8.37087 5.17677 8.60087L7.27677 10.7009Z" fill="#2B3640"/>
</svg>
